<mxfile host="Electron" agent="Mozilla/5.0 (Windows NT 10.0; Win64; x64) AppleWebKit/537.36 (KHTML, like Gecko) draw.io/28.1.2 Chrome/138.0.7204.243 Electron/37.4.0 Safari/537.36" version="28.1.2">
  <diagram name="Page-1" id="AcoLENiekasxiTHqSIOo">
    <mxGraphModel dx="815" dy="481" grid="1" gridSize="10" guides="1" tooltips="1" connect="1" arrows="1" fold="1" page="1" pageScale="1" pageWidth="827" pageHeight="1169" math="0" shadow="0">
      <root>
        <mxCell id="0" />
        <mxCell id="1" parent="0" />
        <mxCell id="MMdVLe4UEXJUQT5hQaAA-8" style="edgeStyle=orthogonalEdgeStyle;rounded=0;orthogonalLoop=1;jettySize=auto;html=1;strokeWidth=3;" edge="1" parent="1" source="MMdVLe4UEXJUQT5hQaAA-1" target="MMdVLe4UEXJUQT5hQaAA-2">
          <mxGeometry relative="1" as="geometry" />
        </mxCell>
        <mxCell id="MMdVLe4UEXJUQT5hQaAA-1" value="Réception" style="rounded=0;whiteSpace=wrap;html=1;" vertex="1" parent="1">
          <mxGeometry x="200" y="150" width="120" height="60" as="geometry" />
        </mxCell>
        <mxCell id="MMdVLe4UEXJUQT5hQaAA-10" style="edgeStyle=orthogonalEdgeStyle;rounded=0;orthogonalLoop=1;jettySize=auto;html=1;exitX=0.25;exitY=1;exitDx=0;exitDy=0;entryX=0.25;entryY=0;entryDx=0;entryDy=0;strokeWidth=3;" edge="1" parent="1" source="MMdVLe4UEXJUQT5hQaAA-2" target="MMdVLe4UEXJUQT5hQaAA-6">
          <mxGeometry relative="1" as="geometry" />
        </mxCell>
        <mxCell id="MMdVLe4UEXJUQT5hQaAA-12" style="edgeStyle=orthogonalEdgeStyle;rounded=0;orthogonalLoop=1;jettySize=auto;html=1;strokeColor=#FF0000;strokeWidth=3;" edge="1" parent="1" source="MMdVLe4UEXJUQT5hQaAA-2" target="MMdVLe4UEXJUQT5hQaAA-4">
          <mxGeometry relative="1" as="geometry" />
        </mxCell>
        <mxCell id="MMdVLe4UEXJUQT5hQaAA-2" value="Contrôle qualité" style="rounded=0;whiteSpace=wrap;html=1;" vertex="1" parent="1">
          <mxGeometry x="390" y="150" width="120" height="60" as="geometry" />
        </mxCell>
        <mxCell id="MMdVLe4UEXJUQT5hQaAA-13" style="edgeStyle=orthogonalEdgeStyle;rounded=0;orthogonalLoop=1;jettySize=auto;html=1;entryX=0.5;entryY=0;entryDx=0;entryDy=0;strokeWidth=3;" edge="1" parent="1" source="MMdVLe4UEXJUQT5hQaAA-4" target="MMdVLe4UEXJUQT5hQaAA-5">
          <mxGeometry relative="1" as="geometry" />
        </mxCell>
        <mxCell id="MMdVLe4UEXJUQT5hQaAA-4" value="Magasin" style="rounded=0;whiteSpace=wrap;html=1;" vertex="1" parent="1">
          <mxGeometry x="580" y="150" width="120" height="60" as="geometry" />
        </mxCell>
        <mxCell id="MMdVLe4UEXJUQT5hQaAA-5" value="Production" style="rounded=0;whiteSpace=wrap;html=1;" vertex="1" parent="1">
          <mxGeometry x="580" y="270" width="120" height="60" as="geometry" />
        </mxCell>
        <mxCell id="MMdVLe4UEXJUQT5hQaAA-11" style="edgeStyle=orthogonalEdgeStyle;rounded=0;orthogonalLoop=1;jettySize=auto;html=1;exitX=0.75;exitY=0;exitDx=0;exitDy=0;entryX=0.75;entryY=1;entryDx=0;entryDy=0;strokeWidth=3;" edge="1" parent="1" source="MMdVLe4UEXJUQT5hQaAA-6" target="MMdVLe4UEXJUQT5hQaAA-2">
          <mxGeometry relative="1" as="geometry" />
        </mxCell>
        <mxCell id="MMdVLe4UEXJUQT5hQaAA-6" value="Industriallisation" style="rounded=0;whiteSpace=wrap;html=1;" vertex="1" parent="1">
          <mxGeometry x="390" y="270" width="120" height="60" as="geometry" />
        </mxCell>
      </root>
    </mxGraphModel>
  </diagram>
</mxfile>
